#tb 0: 1/25
#media_type 0: video
#codec_id 0: rawvideo
#dimensions 0: 320x240
#sar 0: 1/1
0,        500,        500,        1,   115200, 0x87d91dc5
0,        501,        501,        1,   115200, 0x87d91dc5
0,        502,        502,        1,   115200, 0x87d91dc5
0,        503,        503,        1,   115200, 0x87d91dc5
0,        504,        504,        1,   115200, 0x87d91dc5
0,        505,        505,        1,   115200, 0x87d91dc5
0,        506,        506,        1,   115200, 0x87d91dc5
0,        507,        507,        1,   115200, 0x87d91dc5
0,        508,        508,        1,   115200, 0x87d91dc5
0,        509,        509,        1,   115200, 0x87d91dc5
0,        510,        510,        1,   115200, 0x87d91dc5
0,        511,        511,        1,   115200, 0x87d91dc5
0,        512,        512,        1,   115200, 0x87d91dc5
0,        513,        513,        1,   115200, 0x87d91dc5
0,        514,        514,        1,   115200, 0x87d91dc5
0,        515,        515,        1,   115200, 0x87d91dc5
0,        516,        516,        1,   115200, 0x87d91dc5
0,        517,        517,        1,   115200, 0x87d91dc5
0,        518,        518,        1,   115200, 0x87d91dc5
0,        519,        519,        1,   115200, 0x87d91dc5
0,        520,        520,        1,   115200, 0x87d91dc5
0,        521,        521,        1,   115200, 0x87d91dc5
0,        522,        522,        1,   115200, 0x87d91dc5
0,        523,        523,        1,   115200, 0x87d91dc5
0,        524,        524,        1,   115200, 0x87d91dc5
